<svg width="40" height="40" viewBox="0 0 40 40" fill="none" xmlns="http://www.w3.org/2000/svg">
<path d="M39.9927 19.5636C39.9927 19.5273 39.9927 19.4836 39.9927 19.4473C39.7018 8.65455 30.8655 0 20.0073 0C10.5745 0 2.67636 6.53091 0.56 15.3091C0.4 15.8909 0.269091 16.48 0.181818 17.1055C0.0872727 17.7818 0.0436383 18.4655 0.0218201 19.1491C0.00727461 19.4327 0 19.7164 0 20C0 31.0473 8.95273 40 20 40C28.3927 40 35.5782 34.8291 38.5455 27.4982C38.6836 27.1564 38.8145 26.8 38.9309 26.4509C39.1709 25.7745 39.3818 25.0909 39.5418 24.3855C39.8473 23.0109 40 21.6073 40 20.1964C40 20.1309 40 20.0655 40 20C40 19.8545 39.9927 19.7091 39.9855 19.5636H39.9927ZM32.4655 33.2C28.9382 36.5091 24.0873 38.2982 19.2218 38.2545C14.48 38.2182 9.76727 36.3491 6.28364 33.0545C6.85818 33.5127 7.46182 33.9273 8.08727 34.32C10.4873 36.1309 13.4618 37.1782 16.4509 37.1927C17.5782 37.2145 18.6909 37.0836 19.7818 36.8436C21.52 36.6182 23.2364 36.1527 24.8436 35.4327C28.9018 33.6291 32.2545 30.2327 33.9418 26.0945C35.6291 21.9564 35.6218 17.1636 33.8836 13.0473C32.1455 8.93818 28.7927 5.56364 24.72 3.84C22.6909 2.96727 20.5164 2.48 18.3273 2.38545C16.1382 2.26182 13.9418 2.58182 11.8691 3.26545C10.9455 3.57818 10.0655 3.98545 9.20727 4.45091C12.48 2.44364 16.3273 1.42545 20.1382 1.57818C25.0327 1.76 29.7673 3.87636 33.1345 7.34546C36.5236 10.8 38.4436 15.6073 38.2909 20.4145C38.2036 25.2291 36.0364 29.9345 32.4655 33.1855V33.2ZM12.3491 4.29091C14.3127 3.73091 16.3709 3.49091 18.4 3.68C20.4291 3.83273 22.4218 4.34909 24.2473 5.21455C27.8982 6.93818 30.8945 10 32.3782 13.7236C33.8982 17.4182 33.8836 21.7018 32.3636 25.3745C31.5927 27.3018 30.4073 29.0473 28.9382 30.5164C30.4073 28.3273 31.2945 25.7527 31.3818 23.1418C31.5564 19.4618 30.16 15.8545 27.8545 13.1855C25.3891 10.5527 21.7745 8.66182 18.0727 8.46546C14.3709 8.27636 10.6036 9.62909 7.78909 12.1091C4.94546 14.5745 3.14909 18.2109 2.87273 21.9927C2.68364 24.3636 3.13455 26.7709 4.13091 28.9382C3.74545 28.4436 3.38182 27.9273 3.06182 27.3891C0.880002 23.7382 0.298183 19.2655 1.34546 15.1564C1.75273 13.5636 2.37818 11.9491 3.35273 10.6182C5.57818 7.56364 8.78545 5.29455 12.3636 4.29818L12.3491 4.29091ZM27.5709 24.5091C26.4291 26.24 24.6836 27.5782 22.6982 28.2036C20.7127 28.8291 18.5091 28.72 16.6036 27.8764C14.3927 26.8945 12.6545 24.9382 11.8764 22.6473C11.8327 22.5164 11.7891 22.3782 11.7527 22.2473C11.5273 21.4545 11.4109 20.64 11.3964 19.8182C11.3818 18.9964 11.4764 18.1745 11.6655 17.3745C11.76 16.9745 11.8836 16.5818 12.0291 16.1964C12.16 15.84 12.3273 15.5127 12.5091 15.1782C12.8436 14.56 13.2436 13.9782 13.7091 13.4473C14.1745 12.9164 14.6982 12.4364 15.2655 12.0218C15.8327 11.6073 16.4509 11.2509 17.0909 10.9673C17.7309 10.6836 18.4073 10.4727 19.0982 10.3418C20.1309 10.1455 21.2 10.1236 22.2182 10.3418C23.2073 10.5527 24.1382 10.9818 24.9745 11.5491C26.9964 12.9164 28.4509 15.1055 28.9309 17.5055C29.4109 19.9055 28.9091 22.48 27.5564 24.5164L27.5709 24.5091ZM4.21091 22.1455C4.37818 18.7345 5.96364 15.4473 8.45818 13.0691C10.9527 10.6836 14.3927 9.28727 17.8982 9.30909C19.6 9.29455 21.3164 9.61455 22.9236 10.2545C22.72 10.1891 22.5091 10.1309 22.2982 10.08C22.0436 10.0218 21.7891 9.97091 21.5345 9.93455C21.1855 9.88364 20.8291 9.85455 20.48 9.84C19.8036 9.81818 19.12 9.86909 18.4582 9.98545C17.7891 10.1018 17.1345 10.2836 16.5018 10.5309C15.8691 10.7782 15.2582 11.0764 14.6764 11.44C14.1018 11.7964 13.5564 12.2109 13.0545 12.6691C12.56 13.1273 12.1018 13.6364 11.7091 14.1891C11.3164 14.7418 10.9745 15.3309 10.7127 15.9491C10.4436 16.5745 10.24 17.2364 10.1091 17.9055C9.97818 18.5745 9.91273 19.2582 9.91273 19.9418C9.91273 20.6255 9.97818 21.3091 10.1091 21.9855C10.24 22.6545 10.4364 23.3164 10.6909 23.9564C10.9455 24.5891 11.2655 25.2 11.6364 25.7673C12.0073 26.3345 12.4436 26.8655 12.9309 27.3382C15.9927 30.3273 21.0182 31.0618 24.8073 29.0764C28.5964 27.0909 30.8509 22.5382 30.1309 18.32C30.0945 18.0945 30.0436 17.8764 29.9927 17.6509C30.5891 19.4182 30.8291 21.3018 30.6473 23.1418C30.3273 26.6545 28.6109 29.9636 26 32.2473C24.5018 33.5636 22.7273 34.5091 20.8364 35.0691C18.1818 35.6655 15.3818 35.6218 12.7345 34.9164C10.7418 34.2255 8.92364 33.0473 7.52 31.4764C5.20727 28.9891 4.01455 25.5418 4.24 22.1455H4.21091Z" fill="black"/>
</svg>
